<?xml version="1.0" encoding="utf-8"?>
<!-- Generator: Adobe Illustrator 24.2.1, SVG Export Plug-In . SVG Version: 6.00 Build 0)  -->
<svg version="1.1" id="Layer_1" xmlns="http://www.w3.org/2000/svg" xmlns:xlink="http://www.w3.org/1999/xlink" x="0px" y="0px"
	 viewBox="0 0 510 186" style="enable-background:new 0 0 510 186;" xml:space="preserve">
<style type="text/css">
	.st0{fill:#D14343;}
	.st1{fill:#666666;}
	.st2{font-family:'Roboto-ThinItalic';}
	.st3{font-size:33.1315px;}
</style>
<g>
	<path class="st0" d="M48.1,38.4H10.7l3-20.2c34,0,62.8,0,97,0l-3,20.2H70.3L56,136H33.8L48.1,38.4z"/>
	<path class="st0" d="M107,136l17.3-117.9h22.1L129.1,136H107z"/>
	<path class="st0" d="M210.6,101.3h-33.3l-5.1,34.7h-22.2l17.3-117.9c18.5,0,37.1-0.2,55.6-0.2C280.4,18,268.3,101.3,210.6,101.3z
		 M180.2,81h33.3c28.5,0,34.4-41.8,6.1-41.8h-33.3L180.2,81z"/>
	<path class="st0" d="M350.7,113.8h-61.6L275.7,136h-24.1l70.2-117.9h24.2L381.6,136h-24.2L350.7,113.8z M330.3,42.9L301,93.1h43.8
		L330.3,42.9z"/>
	<path class="st0" d="M408.7,18.2h90.6l-1.5,10.4L423.9,115H485l-3.1,21h-92.1l1.9-12.8L463.9,39h-58.3L408.7,18.2z"/>
</g>
<text transform="matrix(1 0 0 1 17.9995 172.0762)" class="st1 st2 st3">Where woodworking comes to life</text>
</svg>
