<?xml version="1.0" encoding="utf-8"?>
<!-- Generator: Adobe Illustrator 24.2.3, SVG Export Plug-In . SVG Version: 6.00 Build 0)  -->
<svg version="1.1" id="Capa_1" xmlns="http://www.w3.org/2000/svg" xmlns:xlink="http://www.w3.org/1999/xlink" x="0px" y="0px"
	 viewBox="0 0 460.3 391.4" style="enable-background:new 0 0 460.3 391.4;" xml:space="preserve">
<style type="text/css">
	.st0{fill:#FF351A;}
</style>
<g>
	<g>
		<path class="st0" d="M230.1,90.7L72.3,220.8c0,0.2,0,0.5-0.1,0.8c-0.1,0.4-0.1,0.6-0.1,0.8v131.7c0,4.8,1.7,8.9,5.2,12.3
			c3.5,3.5,7.6,5.2,12.3,5.2H195V266.4h70.3v105.4h105.4c4.8,0,8.9-1.7,12.3-5.2c3.5-3.5,5.2-7.6,5.2-12.3V222.4
			c0-0.7-0.1-1.3-0.3-1.6L230.1,90.7z"/>
		<path class="st0" d="M449.4,203.5l-17,20.3c-1.5,1.6-3.4,2.7-5.8,3h-0.8c-2.4,0-4.3-0.6-5.8-1.9L230.1,66.6L40.2,224.9
			c-2.2,1.5-4.4,2.1-6.6,1.9c-2.4-0.4-4.3-1.4-5.8-3l-17-20.3c-1.5-1.8-2.1-4-1.9-6.5c0.2-2.5,1.2-4.4,3-5.9L209.3,26.8
			c5.9-4.8,12.8-7.1,20.9-7.1c8.1,0,15,2.4,20.9,7.1l48.3,40.3L318,82.7v-0.1l70.3,58.5l0,0l14.4,12l45.7,38c1.8,1.5,2.8,3.4,3,5.9
			C451.5,199.5,450.9,201.7,449.4,203.5z"/>
	</g>
</g>
</svg>
