<?xml version="1.0" encoding="utf-8"?>
<!-- Generator: Adobe Illustrator 24.2.3, SVG Export Plug-In . SVG Version: 6.00 Build 0)  -->
<svg version="1.1" id="Capa_1" xmlns="http://www.w3.org/2000/svg" xmlns:xlink="http://www.w3.org/1999/xlink" x="0px" y="0px"
	 viewBox="0 0 326.3 391.4" style="enable-background:new 0 0 326.3 391.4;" xml:space="preserve">
<style type="text/css">
	.st0{fill:#FF351A;}
</style>
<g>
	<path class="st0" d="M312.7,111.4c0-0.3,0.3-0.7,0.3-1l-91.2,87.8l91,85.1c0-0.6-0.1-1.3-0.1-1.8L312.7,111.4L312.7,111.4z"/>
	<path class="st0" d="M207.8,211.7l-37.2,35.8c-1.9,1.8-4.3,2.8-6.8,2.8c-2.4,0-4.7-0.8-6.7-2.6L119.9,213l-91.6,88.5
		c2.2,0.8,4.6,1.4,7.1,1.4h256.7c3.8,0,7.2-1.1,10.3-2.8L207.8,211.7z"/>
	<path class="st0" d="M163.6,227.2l139.2-134c-3.2-1.8-6.8-3.1-10.7-3.1H35.4c-5.2,0-9.7,1.9-13.5,5L163.6,227.2z"/>
	<path class="st0" d="M14,114.6v166.9c0,1.9,0.4,3.8,1,5.6l90.6-87.1L14,114.6z"/>
</g>
</svg>
