<?xml version="1.0" encoding="utf-8"?>
<!-- Generator: Adobe Illustrator 24.2.3, SVG Export Plug-In . SVG Version: 6.00 Build 0)  -->
<svg version="1.1" id="Capa_1" xmlns="http://www.w3.org/2000/svg" xmlns:xlink="http://www.w3.org/1999/xlink" x="0px" y="0px"
	 viewBox="0 0 326.3 391.4" style="enable-background:new 0 0 326.3 391.4;" xml:space="preserve">
<style type="text/css">
	.st0{fill:#FF351A;}
</style>
<g>
	<path class="st0" d="M243.1,19.7H84.8c-13,0-23.9,10.8-23.9,23.9v305.9c0,13,10.8,23.9,23.9,23.9h157.3c13,0,23.9-10.8,23.9-23.9
		V43.6C267,30.5,256.2,19.7,243.1,19.7z M139,37.1h49.9c1.1,0,3.3,1.1,3.3,3.3c0,1.1-1.1,3.3-3.3,3.3H139c-1.1,0-3.3-1.1-3.3-3.3
		C135.8,38.1,136.8,37.1,139,37.1z M164,361.4c-6.5,0-11.9-5.4-11.9-11.9s5.4-11.9,11.9-11.9s11.9,5.4,11.9,11.9
		C175.9,355.9,170.5,361.4,164,361.4z M249.6,328.8H78.3V57.7h172.5v271.2h-1.2V328.8z"/>
</g>
</svg>
