<?xml version="1.0" encoding="utf-8"?>
<!-- Generator: Adobe Illustrator 24.2.3, SVG Export Plug-In . SVG Version: 6.00 Build 0)  -->
<svg version="1.1" id="Layer_1" xmlns="http://www.w3.org/2000/svg" xmlns:xlink="http://www.w3.org/1999/xlink" x="0px" y="0px"
	 viewBox="0 0 388.3 169.6" style="enable-background:new 0 0 388.3 169.6;" xml:space="preserve">
<style type="text/css">
	.st0{fill:#FF351A;}
	.st1{fill:#E6E6E6;}
</style>
<g>
	<path class="st0" d="M41.7,26.4H14.1l2.2-14.9c25.1,0,46.3,0,71.5,0l-2.2,14.9H58.1l-10.6,72H31.1L41.7,26.4z"/>
	<path class="st0" d="M85.1,98.4l12.8-86.8h16.3l-12.8,86.8H85.1z"/>
	<path class="st0" d="M161.4,72.8h-24.6L133,98.4h-16.4l12.8-86.8c13.6,0,27.3-0.1,41-0.1C212.9,11.4,204,72.8,161.4,72.8z
		 M139.1,57.8h24.6c21,0,25.4-30.8,4.5-30.8h-24.6L139.1,57.8z"/>
	<path class="st0" d="M264.7,82h-45.4l-9.9,16.4h-17.7l51.7-86.8h17.9l26.2,86.8h-17.9L264.7,82z M249.6,29.8l-21.6,37h32.3
		L249.6,29.8z"/>
	<path class="st0" d="M307.4,11.6h66.7l-1.1,7.7l-54.4,63.6h45l-2.3,15.5h-67.9l1.4-9.4L348,27h-42.9L307.4,11.6z"/>
</g>
<g>
	<path class="st1" d="M49.5,139.1l0.4,5.8L62.4,119h1.4l2.7,20l0.8,6l2.6-6.1l9-19.9h1.7l-12.8,28.1h-1.4l-3.1-21.3l-0.4-4.8l-2.3,5
		l-10.2,21H49l-3.2-28h1.6L49.5,139.1z"/>
	<path class="st1" d="M83,132.5c0.4-2.6,1.3-5,2.6-7.1c1.3-2.1,3-3.8,4.9-5.1s4.1-1.8,6.5-1.8c1.9,0,3.6,0.4,5.1,1.3
		c1.5,0.8,2.6,2.1,3.5,3.8c0.9,1.7,1.4,3.5,1.5,5.5c0.1,1.2-0.1,2.7-0.3,4.5c-0.4,2.6-1.3,5-2.6,7.2c-1.3,2.2-3,3.8-4.9,5.1
		c-2,1.2-4.1,1.8-6.4,1.8c-1.9,0-3.6-0.4-5.1-1.3c-1.5-0.9-2.6-2.1-3.5-3.8s-1.4-3.5-1.5-5.6C82.7,135.8,82.8,134.3,83,132.5z
		 M84.2,138.1c0.3,2.5,1.3,4.5,2.8,6s3.4,2.2,5.7,2.2c2.7,0,5.2-0.9,7.4-2.9c2.2-1.9,3.8-4.5,4.7-7.7c0.8-2.7,1-5.2,0.7-7.6
		c-0.4-2.5-1.3-4.5-2.8-6s-3.4-2.2-5.7-2.2c-2.7,0-5.2,1-7.4,2.9c-2.2,1.9-3.8,4.5-4.8,7.7C84.1,133.1,83.9,135.6,84.2,138.1z"/>
	<path class="st1" d="M111.7,132.5c0.4-2.6,1.3-5,2.6-7.1c1.3-2.1,3-3.8,4.9-5.1s4.1-1.8,6.5-1.8c1.9,0,3.6,0.4,5.1,1.3
		c1.5,0.8,2.6,2.1,3.5,3.8c0.9,1.7,1.4,3.5,1.5,5.5c0.1,1.2-0.1,2.7-0.3,4.5c-0.4,2.6-1.3,5-2.6,7.2s-3,3.8-4.9,5.1
		c-2,1.2-4.1,1.8-6.4,1.8c-1.9,0-3.6-0.4-5.1-1.3c-1.5-0.9-2.6-2.1-3.5-3.8s-1.4-3.5-1.5-5.6C111.3,135.8,111.4,134.3,111.7,132.5z
		 M112.9,138.1c0.3,2.5,1.3,4.5,2.8,6s3.4,2.2,5.7,2.2c2.7,0,5.2-0.9,7.4-2.9c2.2-1.9,3.8-4.5,4.7-7.7c0.8-2.7,1-5.2,0.7-7.6
		c-0.4-2.5-1.3-4.5-2.8-6s-3.4-2.2-5.7-2.2c-2.7,0-5.2,1-7.4,2.9c-2.2,1.9-3.8,4.5-4.8,7.7C112.8,133.1,112.6,135.6,112.9,138.1z"/>
	<path class="st1" d="M141.1,132.8c0.5-2.8,1.3-5.4,2.6-7.6c1.2-2.2,2.7-3.9,4.4-5s3.6-1.7,5.7-1.7c2,0,3.7,0.5,5.2,1.5
		s2.5,2.4,3.2,4.2l3-17h1.4l-6.9,39.9h-1.4l0.9-4.5c-1.2,1.6-2.7,2.8-4.5,3.7c-1.7,0.9-3.6,1.3-5.7,1.3c-1.8,0-3.4-0.5-4.6-1.4
		c-1.2-0.9-2.2-2.2-2.8-4s-0.9-3.7-0.8-5.8C140.8,135.5,140.9,134.2,141.1,132.8z M142.2,136.1c-0.1,1.9,0,3.7,0.4,5.2
		c0.4,1.6,1.2,2.8,2.2,3.6c1.1,0.8,2.4,1.3,4,1.3c2.3,0,4.3-0.5,6.1-1.6s3.3-2.6,4.4-4.5l2.3-13.2c-0.4-2.3-1.2-4-2.6-5.2
		c-1.4-1.2-3.1-1.9-5.3-1.9s-4.2,0.7-5.9,2.2s-3.1,3.5-4,6.1C142.9,130.8,142.4,133.4,142.2,136.1z"/>
	<path class="st1" d="M174.7,139.1l0.4,5.8l12.5-25.9h1.4l2.7,20l0.8,6l2.6-6.1l9-19.9h1.7L193,147.1h-1.4l-3.1-21.3L188,121l-2.3,5
		l-10.2,21h-1.4l-3.1-28h1.6L174.7,139.1z"/>
	<path class="st1" d="M208.2,132.5c0.4-2.6,1.3-5,2.6-7.1s3-3.8,4.9-5.1c2-1.2,4.1-1.8,6.5-1.8c1.9,0,3.6,0.4,5.1,1.3
		c1.5,0.8,2.6,2.1,3.5,3.8c0.9,1.7,1.4,3.5,1.5,5.5c0.1,1.2-0.1,2.7-0.3,4.5c-0.4,2.6-1.3,5-2.6,7.2s-3,3.8-4.9,5.1
		c-2,1.2-4.1,1.8-6.4,1.8c-1.9,0-3.6-0.4-5.1-1.3c-1.5-0.9-2.6-2.1-3.5-3.8s-1.4-3.5-1.5-5.6C207.8,135.8,207.9,134.3,208.2,132.5z
		 M209.4,138.1c0.3,2.5,1.3,4.5,2.8,6s3.4,2.2,5.7,2.2c2.7,0,5.2-0.9,7.4-2.9c2.2-1.9,3.8-4.5,4.7-7.7c0.8-2.7,1-5.2,0.7-7.6
		c-0.4-2.5-1.3-4.5-2.8-6s-3.4-2.2-5.7-2.2c-2.7,0-5.2,1-7.4,2.9s-3.8,4.5-4.8,7.7C209.3,133.1,209.1,135.6,209.4,138.1z"/>
	<path class="st1" d="M253.2,120l-1.7-0.1c-2.3,0-4.5,0.9-6.5,2.6s-3.3,3.8-4,6.3l-3.2,18.4h-1.4l4.8-28.1h1.4l-1.1,5.8
		c1.2-2,2.6-3.6,4.3-4.7s3.6-1.7,5.7-1.7c0.7,0,1.3,0.1,2,0.3L253.2,120z"/>
	<path class="st1" d="M262,131.9L262,131.9l-4.8,3.6l-2,11.6h-1.4l6.9-39.9h1.4l-4.6,26.6l18.1-14.8h2.2l-14.7,12l10.6,16.1H272
		L262,131.9z"/>
	<path class="st1" d="M280.3,147.1h-1.4l4.8-28.1h1.4L280.3,147.1z M284.6,110.2c0.1-0.3,0.2-0.7,0.6-1c0.3-0.3,0.7-0.4,1-0.4
		c0.4,0,0.7,0.2,1,0.5s0.3,0.7,0.3,1c-0.1,0.3-0.2,0.7-0.6,0.9c-0.3,0.3-0.7,0.4-1,0.4c-0.4,0-0.7-0.2-1-0.5
		C284.6,110.9,284.5,110.5,284.6,110.2z"/>
	<path class="st1" d="M294.5,125.5c1.4-2.3,3.1-4,5-5.2s3.9-1.8,5.9-1.8c2.1,0,3.8,0.6,5.1,1.7c1.2,1.1,1.9,2.7,2.1,4.8
		c0.1,1.3,0,2.7-0.2,4.1l-3.1,18h-1.4l3.1-18c0.2-1.2,0.3-2.4,0.3-3.6c-0.1-1.8-0.6-3.2-1.6-4.2s-2.4-1.4-4.3-1.4
		c-2.4,0-4.7,1-6.8,2.8c-2.2,1.8-3.7,4-4.5,6.5l-3.1,18h-1.4l4.8-28.1h1.4L294.5,125.5z"/>
	<path class="st1" d="M319.2,132.8c0.5-2.8,1.3-5.4,2.6-7.6c1.2-2.2,2.7-3.9,4.4-5c1.7-1.1,3.6-1.7,5.7-1.7c2,0,3.8,0.5,5.2,1.5
		c1.4,1,2.5,2.4,3.1,4.1l0.9-5.1h1.4l-4.6,27.1c-0.7,3.9-2.1,6.9-4.3,9.1c-2.2,2.2-4.9,3.3-8,3.3c-3.6,0-6.3-1.6-8.3-4.8l1.1-0.9
		c1.8,2.9,4.2,4.3,7.1,4.3c2.7,0,5-0.9,7-2.7c1.9-1.8,3.3-4.4,3.9-7.7l0.8-3.9c-1.2,1.6-2.7,2.8-4.5,3.7c-1.7,0.9-3.6,1.3-5.6,1.3
		c-1.8,0-3.4-0.5-4.6-1.4s-2.2-2.2-2.8-4c-0.6-1.8-0.9-3.7-0.8-5.8C318.8,135.5,319,134.2,319.2,132.8z M320.2,136.1
		c-0.2,3.2,0.2,5.6,1.4,7.4c1.2,1.8,2.9,2.7,5.3,2.7c2.2,0,4.3-0.5,6.1-1.6s3.3-2.6,4.4-4.6l2.3-12.8c-0.3-2.4-1.2-4.2-2.6-5.4
		c-1.4-1.2-3.1-1.9-5.3-1.9c-2.2,0-4.2,0.7-5.9,2.2c-1.7,1.5-3.1,3.5-4,6.1C320.9,130.8,320.4,133.4,320.2,136.1z"/>
</g>
</svg>
